<?xml version="1.0" standalone="no"?><svg xmlns="http://www.w3.org/2000/svg" viewBox="0 0 1440 320"><path fill="#FC7474" fill-opacity="1" d="M0,320L21.8,320C43.6,320,87,320,131,293.3C174.5,267,218,213,262,213.3C305.5,213,349,267,393,288C436.4,309,480,299,524,277.3C567.3,256,611,224,655,202.7C698.2,181,742,171,785,181.3C829.1,192,873,224,916,229.3C960,235,1004,213,1047,176C1090.9,139,1135,85,1178,85.3C1221.8,85,1265,139,1309,154.7C1352.7,171,1396,149,1418,138.7L1440,128L1440,320L1418.2,320C1396.4,320,1353,320,1309,320C1265.5,320,1222,320,1178,320C1134.5,320,1091,320,1047,320C1003.6,320,960,320,916,320C872.7,320,829,320,785,320C741.8,320,698,320,655,320C610.9,320,567,320,524,320C480,320,436,320,393,320C349.1,320,305,320,262,320C218.2,320,175,320,131,320C87.3,320,44,320,22,320L0,320Z"></path></svg>