<?xml version="1.0" standalone="no"?><svg xmlns="http://www.w3.org/2000/svg" viewBox="0 0 1440 320"><path fill="#FC7474" fill-opacity="1" d="M0,256L21.8,250.7C43.6,245,87,235,131,224C174.5,213,218,203,262,181.3C305.5,160,349,128,393,101.3C436.4,75,480,53,524,69.3C567.3,85,611,139,655,154.7C698.2,171,742,149,785,133.3C829.1,117,873,107,916,117.3C960,128,1004,160,1047,176C1090.9,192,1135,192,1178,181.3C1221.8,171,1265,149,1309,133.3C1352.7,117,1396,107,1418,101.3L1440,96L1440,0L1418.2,0C1396.4,0,1353,0,1309,0C1265.5,0,1222,0,1178,0C1134.5,0,1091,0,1047,0C1003.6,0,960,0,916,0C872.7,0,829,0,785,0C741.8,0,698,0,655,0C610.9,0,567,0,524,0C480,0,436,0,393,0C349.1,0,305,0,262,0C218.2,0,175,0,131,0C87.3,0,44,0,22,0L0,0Z"></path></svg>